<svg width="25" height="25" fill="none" xmlns="http://www.w3.org/2000/svg"><g clip-path="url(#clip0)"><path d="M12.347.001a12.072 12.072 0 00-2.505.265A12.217 12.217 0 003.11 4.264C-1.347 9.477-.812 17.382 4.305 21.922a12.127 12.127 0 0017.28-1.155 12.629 12.629 0 003.05-8.25C24.634 5.603 19.132 0 12.346 0zm-8.24 4.395c.064-.069.131-.134.197-.2.077-.077.152-.154.23-.227.069-.065.139-.128.209-.191.08-.072.158-.143.239-.212.071-.061.144-.12.217-.18.082-.066.164-.133.249-.197a7.31 7.31 0 01.226-.167c.085-.062.17-.125.256-.183a10.964 10.964 0 011.014-.62 11.826 11.826 0 011.325-.616c.1-.038.2-.074.3-.11l.258-.09c.102-.033.205-.064.308-.095.087-.025.172-.051.26-.075l.099-.025a10.383 10.383 0 00-2.618 4.33 13.606 13.606 0 01-2.806-1.1c.013-.015.025-.03.037-.042zm-.59.671a14.08 14.08 0 003.109 1.26 22.017 22.017 0 00-.827 5.771H.889a11.78 11.78 0 012.629-7.03zm0 14.897a11.782 11.782 0 01-2.629-7.031h4.91c.02 1.953.298 3.894.828 5.77a14.09 14.09 0 00-3.108 1.26zM9.393 23.8c-.083-.021-.169-.049-.254-.075a9.163 9.163 0 01-.31-.095 10.321 10.321 0 01-.257-.09 9.482 9.482 0 01-.554-.212l-.293-.126a10.375 10.375 0 01-.536-.257 11.099 11.099 0 01-1.028-.596 11.07 11.07 0 01-.491-.34 10.596 10.596 0 01-.474-.367 7.245 7.245 0 01-.456-.39c-.07-.063-.14-.125-.208-.19-.078-.074-.154-.151-.23-.227-.066-.067-.133-.132-.198-.2l-.035-.039c.893-.47 1.834-.84 2.806-1.1a10.386 10.386 0 002.618 4.329l-.1-.025zm2.545.363c-1.752-.254-3.289-2.117-4.255-4.868a20.455 20.455 0 014.255-.51v5.378zm0-6.212a21.17 21.17 0 00-4.512.548 21.227 21.227 0 01-.807-5.566h5.32v5.018zm0-5.853h-5.32c.021-1.884.292-3.756.807-5.566 1.48.344 2.993.528 4.512.548v5.018zm0-5.852a20.433 20.433 0 01-4.255-.51c.966-2.751 2.503-4.614 4.255-4.868v5.378zm9.24-1.179a11.782 11.782 0 012.629 7.031h-4.911a22.016 22.016 0 00-.827-5.77 14.095 14.095 0 003.108-1.26zM15.3 1.231c.086.022.171.05.257.075a9.163 9.163 0 01.566.185 9.684 9.684 0 01.848.338 10.688 10.688 0 01.536.257A11.395 11.395 0 0119.5 3.388c.072.058.144.116.215.177.082.07.16.142.24.213.07.063.14.126.208.19.078.074.154.151.23.228.066.066.133.131.198.2l.035.038c-.893.47-1.834.84-2.806 1.1a10.386 10.386 0 00-2.621-4.328l.1.025zM12.757.868c1.752.254 3.289 2.117 4.255 4.868a20.4 20.4 0 01-4.255.51V.868zm0 6.212a21.17 21.17 0 004.512-.548c.515 1.81.786 3.682.807 5.566h-5.32V7.08zm0 5.853h5.319a21.227 21.227 0 01-.807 5.566 21.203 21.203 0 00-4.512-.548v-5.018zm0 11.23v-5.378a20.4 20.4 0 014.255.51c-.966 2.751-2.503 4.614-4.255 4.868zm7.83-3.528c-.064.068-.131.134-.197.2-.076.076-.152.154-.23.228-.069.065-.139.125-.208.19-.08.071-.159.143-.24.212-.072.061-.145.12-.218.18-.081.066-.163.133-.248.197a7.89 7.89 0 01-.226.167c-.085.062-.17.125-.257.183a9.613 9.613 0 01-.499.323l-.24.143a11.874 11.874 0 01-1.054.541l-.29.125c-.086.035-.17.07-.255.103-.1.039-.2.075-.301.11-.085.031-.17.062-.257.09a9.496 9.496 0 01-.31.095c-.085.026-.171.052-.257.076l-.1.024a10.384 10.384 0 002.618-4.329c.972.261 1.913.63 2.806 1.1-.013.015-.025.03-.037.042zm.59-.671a14.084 14.084 0 00-3.109-1.26c.53-1.877.808-3.818.827-5.771h4.91a11.78 11.78 0 01-2.629 7.03z" fill="#fff"/></g><defs><clipPath id="clip0"><path fill="#fff" transform="translate(.088)" d="M0 0h24.547v25H0z"/></clipPath></defs></svg>