<svg width="25" height="25" fill="none" xmlns="http://www.w3.org/2000/svg"><path d="M3.662 25h17.676A3.666 3.666 0 0025 21.338V3.662A3.666 3.666 0 0021.338 0H3.662A3.666 3.666 0 000 3.662v17.676A3.666 3.666 0 003.662 25zM1.465 3.662a2.2 2.2 0 012.197-2.197h17.676a2.2 2.2 0 012.197 2.197v17.676a2.2 2.2 0 01-2.197 2.197H3.662a2.2 2.2 0 01-2.197-2.197V3.662z" fill="#fff"/><path d="M12.5 19.092a6.6 6.6 0 006.592-6.592A6.6 6.6 0 0012.5 5.908 6.6 6.6 0 005.908 12.5a6.6 6.6 0 006.592 6.592zm0-11.719c2.827 0 5.127 2.3 5.127 5.127s-2.3 5.127-5.127 5.127A5.133 5.133 0 017.373 12.5c0-2.827 2.3-5.127 5.127-5.127zm7.324 0a2.2 2.2 0 002.197-2.197 2.2 2.2 0 00-2.197-2.197 2.2 2.2 0 00-2.197 2.197 2.2 2.2 0 002.197 2.197zm0-2.93a.733.733 0 010 1.465.733.733 0 010-1.465z" fill="#fff"/></svg>