<svg width="30" height="30" fill="none" xmlns="http://www.w3.org/2000/svg"><g clip-path="url(#clip0)"><path d="M15 30c8.284 0 15-6.716 15-15 0-8.284-6.716-15-15-15C6.716 0 0 6.716 0 15c0 8.284 6.716 15 15 15z" fill="#41B4E6"/><path d="M30 15c0-.365-.014-.727-.04-1.086l-6.216-6.217-17.488 6.879 6.691 6.69.088.317.114-.115-.114.115 7.401 7.401C26.033 26.807 30 21.367 30 15z" fill="#0091C8"/><path d="M13.543 17.186l6.779 5.118 3.422-14.607-17.488 6.879 5.321 1.762 9.712-6.514-7.746 7.362z" fill="#fff"/><path d="M11.577 16.338l1.458 5.245.508-4.397 7.746-7.362-9.712 6.514z" fill="#D2D2D7"/><path d="M15.746 18.849l-2.711 2.734.508-4.397 2.204 1.663z" fill="#B9B9BE"/></g><defs><clipPath id="clip0"><path fill="#fff" d="M0 0h30v30H0z"/></clipPath></defs></svg>