<svg width="134" height="134" fill="none" xmlns="http://www.w3.org/2000/svg"><path d="M51.367 80.4c-12.335 0-22.334 9.999-22.334 22.333 0 12.335 10 22.334 22.334 22.334S73.7 115.068 73.7 102.733c-.013-12.329-10.004-22.32-22.333-22.333zm0 40.2c-9.868 0-17.867-7.999-17.867-17.867 0-9.868 7.999-17.866 17.867-17.866 9.868 0 17.866 7.998 17.866 17.866-.01 9.863-8.004 17.856-17.866 17.867z" fill="#000"/><path d="M51.367 96.033c2.727 0 4.466 1.322 4.466 2.234H60.3c0-3.174-2.811-5.744-6.7-6.477v-2.457h-4.467v2.457c-3.888.728-6.7 3.299-6.7 6.477 0 3.759 3.924 6.7 8.934 6.7 2.727 0 4.466 1.321 4.466 2.233 0 .912-1.739 2.233-4.466 2.233-2.728 0-4.467-1.321-4.467-2.233h-4.467c0 3.173 2.812 5.744 6.7 6.476v2.457H53.6v-2.457c3.889-.727 6.7-3.298 6.7-6.476 0-3.759-3.924-6.7-8.933-6.7-2.728 0-4.467-1.322-4.467-2.233 0-.912 1.74-2.234 4.467-2.234z" fill="#000"/><path d="M113.9 129.533H20.1v-53.6h35.733c3.7 0 6.7-3 6.7-6.7V13.4H87.1v26.8h26.8v31.267h4.467V37.042L90.258 8.933H62.533V6.7c0-3.7-3-6.7-6.7-6.7H6.7C3 0 0 3 0 6.7v62.533c0 3.7 3 6.7 6.7 6.7h8.933V134h102.734v-31.267H113.9v26.8zM91.567 16.558l19.175 19.175H91.567V16.558zm-87.1 52.675V6.7c0-1.233 1-2.233 2.233-2.233h49.133c1.234 0 2.234 1 2.234 2.233v62.533c0 1.234-1 2.234-2.234 2.234H6.7c-1.233 0-2.233-1-2.233-2.234z" fill="#000"/><path d="M71.467 55.833h4.466V60.3h-4.466v-4.467zm8.933 0h26.8V60.3H80.4v-4.467zM71.467 46.9h4.466v4.467h-4.466V46.9zm8.933 0h26.8v4.467H80.4V46.9zm-8.933 17.867h4.466v4.466h-4.466v-4.466zm8.933 0h26.8v4.466H80.4v-4.466zM71.467 73.7h4.466v4.467h-4.466V73.7zm8.933 0h26.8v4.467H80.4V73.7zm-24.567-67H6.7v15.633h49.133V6.7zm-4.466 11.167h-40.2v-6.7h40.2v6.7zm-33.5 6.7H13.4c-2.467 0-4.467 2-4.467 4.466V33.5c0 2.467 2 4.467 4.467 4.467h4.467c2.466 0 4.466-2 4.466-4.467v-4.467c0-2.466-2-4.466-4.466-4.466zM13.4 33.5v-4.467h4.467V33.5H13.4zm20.1-8.933h-4.467c-2.466 0-4.466 2-4.466 4.466V33.5c0 2.467 2 4.467 4.466 4.467H33.5c2.467 0 4.467-2 4.467-4.467v-4.467c0-2.466-2-4.466-4.467-4.466zM29.033 33.5v-4.467H33.5V33.5h-4.467zm20.1-8.933h-4.466c-2.467 0-4.467 2-4.467 4.466V33.5c0 2.467 2 4.467 4.467 4.467h4.466c2.467 0 4.467-2 4.467-4.467v-4.467c0-2.466-2-4.466-4.467-4.466zM44.667 33.5v-4.467h4.466V33.5h-4.466zm-26.8 6.7H13.4c-2.467 0-4.467 2-4.467 4.467v4.466c0 2.467 2 4.467 4.467 4.467h4.467c2.466 0 4.466-2 4.466-4.467v-4.466c0-2.467-2-4.467-4.466-4.467zM13.4 49.133v-4.466h4.467v4.466H13.4zM33.5 40.2h-4.467c-2.466 0-4.466 2-4.466 4.467v4.466c0 2.467 2 4.467 4.466 4.467H33.5c2.467 0 4.467-2 4.467-4.467v-4.466c0-2.467-2-4.467-4.467-4.467zm-4.467 8.933v-4.466H33.5v4.466h-4.467zm20.1-8.933h-4.466c-2.467 0-4.467 2-4.467 4.467v4.466c0 2.467 2 4.467 4.467 4.467h4.466c2.467 0 4.467-2 4.467-4.467v-4.466c0-2.467-2-4.467-4.467-4.467zm-4.466 8.933v-4.466h4.466v4.466h-4.466zm-26.8 6.7H13.4c-2.467 0-4.467 2-4.467 4.467v4.467c0 2.466 2 4.466 4.467 4.466h4.467c2.466 0 4.466-2 4.466-4.466V60.3c0-2.467-2-4.467-4.466-4.467zM13.4 64.767V60.3h4.467v4.467H13.4zm20.1-8.934h-4.467c-2.466 0-4.466 2-4.466 4.467v4.467c0 2.466 2 4.466 4.466 4.466H33.5c2.467 0 4.467-2 4.467-4.466V60.3c0-2.467-2-4.467-4.467-4.467zm-4.467 8.934V60.3H33.5v4.467h-4.467zm20.1-8.934h-4.466c-2.467 0-4.467 2-4.467 4.467v4.467c0 2.466 2 4.466 4.467 4.466h4.466c2.467 0 4.467-2 4.467-4.466V60.3c0-2.467-2-4.467-4.467-4.467zm-4.466 8.934V60.3h4.466v4.467h-4.466zm87.305 6.495a6.858 6.858 0 00-9.473 0l-38.287 38.285a2.247 2.247 0 00-.447.645L78.374 121.9a2.233 2.233 0 002.962 2.962l11.707-5.392c.24-.11.458-.26.646-.447l38.283-38.286a6.7 6.7 0 000-9.475zM90.81 115.579l-5.852 2.696 2.696-5.852L116.2 83.875l3.158 3.159-28.548 28.545zm31.713-31.713l-3.158-3.157 1.563-1.564 3.158 3.158-1.563 1.563zm6.298-6.298l-1.579 1.579-3.158-3.158 1.581-1.58a2.283 2.283 0 013.156 0 2.233 2.233 0 010 3.159z" fill="#000"/></svg>