<svg width="134" height="134" fill="none" xmlns="http://www.w3.org/2000/svg"><path d="M108.875 4.188h-83.75a6.288 6.288 0 00-6.281 6.28v113.063a6.29 6.29 0 006.281 6.281h83.75a6.285 6.285 0 006.281-6.281V10.469a6.287 6.287 0 00-6.281-6.281zm0 121.437h-83.75a2.096 2.096 0 01-2.094-2.094v-2.454a6.25 6.25 0 002.094.361h83.75c.713 0 1.422-.122 2.094-.361v2.454a2.1 2.1 0 01-2.094 2.094zm2.094-17.977v7.508a2.1 2.1 0 01-2.094 2.094h-7.508l9.602-9.602zm-12.563 6.641v-7.508a2.098 2.098 0 012.094-2.093h7.508l-9.602 9.601zM110.97 100.5H100.5a6.287 6.287 0 00-6.281 6.281v10.469H25.125a2.096 2.096 0 01-2.094-2.094V10.469a2.097 2.097 0 012.094-2.094h83.75a2.098 2.098 0 012.094 2.094V100.5z" fill="#000"/><path d="M41.875 48.156h50.25a2.093 2.093 0 002.094-2.093V16.75a2.095 2.095 0 00-2.094-2.094h-50.25a2.093 2.093 0 00-2.094 2.094v29.313a2.093 2.093 0 002.094 2.093zm2.094-8.375h14.656v4.188H43.969V39.78zm18.843-20.937h8.376v16.75h-8.376v-16.75zm8.376 20.937v4.188h-8.376V39.78h8.376zm4.187 4.188V39.78h14.656v4.188H75.375zm14.656-8.375H75.375v-6.282h6.281v-4.187h-6.281v-6.281h14.656v16.75zm-31.406-16.75v6.281h-6.281v4.188h6.281v6.28H43.969v-16.75h14.656zm43.969 35.594H31.406a2.092 2.092 0 00-2.093 2.093v52.344a2.09 2.09 0 001.292 1.934c.254.106.526.16.801.16h58.625v-4.188H83.75V69.094h16.75v27.219h4.188V56.53a2.098 2.098 0 00-2.094-2.093zm-23.031 4.187v6.281h-16.75v-6.281h16.75zm-20.938 0v6.281H33.5v-6.281h25.125zM33.5 69.094h25.125v37.687H33.5V69.094zm46.063 37.687h-16.75V69.094h16.75v37.687zm4.187-41.875v-6.281h16.75v6.281H83.75z" fill="#000"/><path d="M37.688 73.281H50.25v4.188H37.687V73.28zm29.312 0h4.188v4.188H67V73.28zm20.938 0h4.187v4.188h-4.188V73.28z" fill="#000"/></svg>