<svg width="134" height="134" fill="none" xmlns="http://www.w3.org/2000/svg"><path d="M90.33 18.323v-7.857H43.67v7.857H0v105.211h134V18.323H90.33zm-38.81-.005h30.96v7.862H51.52v-7.862zm74.628 97.364H7.852V26.174h35.817v7.858h46.662v-7.857h35.817v89.507z" fill="#000"/><path d="M65.117 56.61h51.821v7.852h-51.82v-7.851zm0 15.627h51.821v7.852h-51.82v-7.852zm0 15.627h51.821v7.851h-51.82v-7.852zM46.672 73.777c3.127-2.886 5.085-6.999 5.085-11.557 0-8.708-7.148-15.792-15.935-15.792S19.887 53.512 19.887 62.22c0 4.558 1.958 8.671 5.085 11.557-4.41 3.308-7.27 8.578-7.27 14.504v12.886h36.24V88.281c0-5.926-2.86-11.196-7.27-14.504zM27.738 62.22c0-4.378 3.626-7.94 8.084-7.94 4.457 0 8.083 3.561 8.083 7.94 0 4.38-3.626 7.941-8.083 7.941-4.458 0-8.084-3.562-8.084-7.94zM46.09 93.315H25.553v-5.034c0-5.662 4.607-10.268 10.269-10.268S46.09 82.619 46.09 88.28v5.034z" fill="#000"/></svg>