<svg width="175" height="175" fill="none" xmlns="http://www.w3.org/2000/svg"><path d="M28.823 144.829l-4.235-6.911-2 2.841v4.07h-2.05v-15.022h2.05v8.173l5.579-8.173h2.287l-4.492 6.512 5.127 8.51h-2.266zm3.138-.687l.748-1.886c.383.28.858.516 1.426.707.574.185 1.087.277 1.538.277.8 0 1.442-.219 1.928-.656.485-.438.728-.995.728-1.672 0-.505-.137-.974-.41-1.404-.267-.438-.944-.913-2.03-1.426l-1.21-.564c-1.026-.478-1.744-1.045-2.154-1.702-.403-.656-.605-1.446-.605-2.368 0-1.121.396-2.051 1.19-2.789.792-.739 1.81-1.108 3.055-1.108 1.661 0 2.816.27 3.466.81l-.605 1.784c-.274-.198-.69-.389-1.251-.574-.56-.184-1.08-.277-1.559-.277-.697 0-1.247.199-1.65.595-.397.396-.595.906-.595 1.528 0 .383.071.731.215 1.046.144.314.342.577.595.789.26.212.786.51 1.579.892l1.23.585c1.026.485 1.743 1.066 2.154 1.743.417.67.625 1.524.625 2.563 0 1.128-.455 2.085-1.364 2.872-.902.786-2.112 1.179-3.63 1.179-1.333 0-2.47-.315-3.414-.944zm12.838-12.489v4.174h4.963v1.743h-4.963v5.414h6.808v1.845h-8.859v-15.022h8.972v1.846H44.8zm18.918 13.382l-7.762-10.982v10.776h-1.948v-15.022h.82l7.557 10.388v-10.388h1.948v15.228h-.615zm4.06-.206v-15.022h2.052v15.022h-2.051zm14.018 0l-1.036-3.168h-5.588l-1.108 3.168h-2.296l6.1-15.227h.544l5.66 15.227h-2.276zm-3.753-11.289l-2.328 6.614h4.46l-2.132-6.614zm21.061 11.289l-4.234-6.911-2 2.841v4.07h-2.05v-15.022h2.05v8.173l5.578-8.173h2.287l-4.491 6.512 5.127 8.51h-2.267zm3.097-7.639c0-2.174.544-3.992 1.631-5.455 1.093-1.463 2.566-2.194 4.419-2.194 2.085 0 3.681.673 4.789 2.02 1.114 1.347 1.671 3.223 1.671 5.629 0 2.468-.557 4.403-1.671 5.804-1.115 1.395-2.711 2.092-4.789 2.092-1.894 0-3.377-.738-4.45-2.215-1.067-1.477-1.6-3.37-1.6-5.681zm2.153 0c0 1.723.339 3.162 1.016 4.317.683 1.155 1.644 1.733 2.881 1.733 1.401 0 2.468-.53 3.199-1.589.738-1.06 1.108-2.547 1.108-4.461 0-3.869-1.436-5.803-4.307-5.803-1.272 0-2.239.519-2.902 1.558-.663 1.039-.995 2.454-.995 4.245zm21.052 7.639l-4.01-6.449c-.458 0-1.182-.034-2.173-.103v6.552h-2.051v-15.022c.075 0 .605-.023 1.589-.071a43.706 43.706 0 012.164-.082c3.609 0 5.414 1.435 5.414 4.306 0 .944-.291 1.795-.872 2.554-.581.751-1.271 1.22-2.071 1.404l4.358 6.911h-2.348zm-6.183-13.176v4.881c.492.068.97.103 1.435.103 1.231 0 2.126-.199 2.687-.595.56-.397.841-1.104.841-2.123 0-.841-.301-1.446-.903-1.815-.601-.369-1.552-.553-2.85-.553-.205 0-.609.034-1.21.102zm9.351 5.537c0-2.174.544-3.992 1.631-5.455 1.093-1.463 2.566-2.194 4.419-2.194 2.085 0 3.681.673 4.789 2.02 1.114 1.347 1.671 3.223 1.671 5.629 0 2.468-.557 4.403-1.671 5.804-1.115 1.395-2.711 2.092-4.789 2.092-1.894 0-3.377-.738-4.45-2.215-1.067-1.477-1.6-3.37-1.6-5.681zm2.154 0c0 1.723.338 3.162 1.015 4.317.683 1.155 1.644 1.733 2.881 1.733 1.401 0 2.468-.53 3.199-1.589.739-1.06 1.108-2.547 1.108-4.461 0-3.869-1.436-5.803-4.307-5.803-1.271 0-2.239.519-2.902 1.558-.663 1.039-.994 2.454-.994 4.245zm12.714 7.639v-15.022h2.051v13.177h6.788v1.845h-8.839zm-84.297 13.562l-.413.589c-.085-.085-.236-.165-.453-.241a1.859 1.859 0 00-.633-.115c-.454 0-.814.16-1.08.479-.267.317-.4.752-.4 1.305 0 .551.136.972.408 1.262.273.287.65.43 1.134.43.375 0 .753-.145 1.134-.435l.33.703c-.449.29-1.004.435-1.666.435-.642 0-1.172-.215-1.591-.646-.419-.43-.628-1.013-.628-1.749 0-.75.216-1.352.65-1.806.437-.454 1.033-.681 1.789-.681.243 0 .506.051.79.154.285.103.494.208.629.316zm1.696-.382v3.002c0 .726.315 1.089.945 1.089a1.3 1.3 0 00.756-.237c.229-.158.38-.341.453-.549v-3.305h.835v4.707h-.835v-.651c-.094.185-.283.355-.567.51a1.73 1.73 0 01-.826.228c-.516 0-.912-.147-1.187-.443-.272-.296-.409-.717-.409-1.262v-3.089h.835zm3.823 4.425l.295-.791c.466.305.84.457 1.125.457.516 0 .773-.216.773-.65 0-.311-.249-.577-.747-.8-.383-.176-.643-.309-.777-.4a1.867 1.867 0 01-.348-.307 1.364 1.364 0 01-.22-.369 1.253 1.253 0 01-.07-.422c0-.387.14-.689.422-.906.281-.216.65-.325 1.103-.325.343 0 .775.109 1.297.325l-.238.774c-.33-.264-.663-.396-.997-.396-.2 0-.368.047-.506.141-.134.094-.202.212-.202.356 0 .302.172.53.514.685l.598.273c.366.167.633.357.8.571.167.214.25.482.25.804 0 .422-.148.753-.444.994-.295.237-.706.355-1.23.355-.495 0-.96-.123-1.398-.369zm4.254-3.766h-.544v-.659h.544v-.984l.835-.321v1.305h1.292v.659h-1.292v2.338c0 .396.066.677.198.844.135.167.35.25.646.25.214 0 .435-.054.664-.162l.123.734a4.611 4.611 0 01-1.138.131c-.373 0-.687-.137-.945-.413-.255-.278-.383-.628-.383-1.05v-2.672zm2.962 1.683c0-.726.195-1.312.585-1.757.392-.449.908-.673 1.547-.673.674 0 1.197.215 1.569.646.372.428.558 1.023.558 1.784 0 .759-.19 1.358-.572 1.798-.38.436-.899.654-1.555.654-.671 0-1.194-.221-1.57-.663-.374-.442-.562-1.039-.562-1.789zm.88 0c0 1.181.417 1.771 1.252 1.771.39 0 .694-.158.914-.474.222-.317.334-.749.334-1.297 0-1.166-.416-1.749-1.248-1.749a1.08 1.08 0 00-.914.466c-.226.311-.339.738-.339 1.283zm9.711 2.365v-2.98c0-.741-.32-1.112-.962-1.112a.954.954 0 00-.567.189.973.973 0 00-.36.422v3.481h-.835v-3.345a.644.644 0 00-.264-.545c-.173-.134-.403-.202-.69-.202-.167 0-.346.065-.536.194a1.183 1.183 0 00-.4.426v3.472h-.835v-4.707h.545l.277.545c.322-.422.725-.633 1.208-.633.674 0 1.146.21 1.415.629.094-.179.268-.329.523-.449s.517-.18.787-.18c.486 0 .863.145 1.13.435.266.287.4.692.4 1.213v3.147h-.836zm1.714-.282l.294-.791c.466.305.841.457 1.126.457.515 0 .773-.216.773-.65 0-.311-.25-.577-.747-.8-.384-.176-.643-.309-.778-.4a1.863 1.863 0 01-.347-.307 1.362 1.362 0 01-.22-.369 1.255 1.255 0 01-.07-.422c0-.387.14-.689.422-.906.28-.216.649-.325 1.103-.325.343 0 .775.109 1.296.325l-.237.774c-.331-.264-.664-.396-.998-.396a.875.875 0 00-.505.141c-.135.094-.202.212-.202.356 0 .302.171.53.514.685l.597.273c.367.167.633.357.8.571.167.214.25.482.25.804 0 .422-.147.753-.443.994-.296.237-.706.355-1.23.355-.496 0-.961-.123-1.398-.369zm7.383-.057l-.295.426h-.417v-6.723h.835v2.276c.079-.108.227-.208.444-.299a1.7 1.7 0 01.646-.136c.644 0 1.166.223 1.564.668.402.445.602 1.008.602 1.688 0 .785-.2 1.403-.602 1.854-.401.448-.945.672-1.63.672a1.85 1.85 0 01-.66-.123 1.356 1.356 0 01-.487-.303zm.123-3.384v2.716c0 .047.104.125.312.233.208.106.366.158.475.158.568 0 .975-.136 1.221-.408.246-.273.37-.73.37-1.371 0-.534-.144-.95-.431-1.248-.287-.299-.674-.449-1.16-.449-.103 0-.247.044-.431.132-.182.088-.3.167-.356.237zm6.741-.18a.957.957 0 00-.55-.189c-.295 0-.554.137-.777.409-.22.272-.33.601-.33.984v2.699h-.835v-4.707h.835v.752c.305-.56.758-.84 1.358-.84.15 0 .365.027.646.079l-.347.813zm.633 1.538c0-.726.195-1.312.584-1.757.393-.449.909-.673 1.547-.673.674 0 1.197.215 1.569.646.372.428.558 1.023.558 1.784 0 .759-.19 1.358-.571 1.798-.381.436-.899.654-1.556.654-.671 0-1.194-.221-1.569-.663-.375-.442-.562-1.039-.562-1.789zm.879 0c0 1.181.417 1.771 1.252 1.771.39 0 .695-.158.914-.474.223-.317.334-.749.334-1.297 0-1.166-.416-1.749-1.248-1.749-.381 0-.685.156-.914.466-.225.311-.338.738-.338 1.283zm7.304 2.365l-1.477-2.356-.73.752v1.604h-.834v-6.636h.834v4.118l1.802-2.189h.976l-1.507 1.789 1.841 2.918h-.905zm5.466-2.272h-3.392c0 .55.151.974.452 1.27.267.257.61.386 1.029.386.477 0 .876-.139 1.195-.417l.352.602c-.129.129-.327.24-.594.334a3.21 3.21 0 01-1.116.184c-.592 0-1.094-.2-1.507-.602-.46-.442-.69-1.037-.69-1.784 0-.776.236-1.399.707-1.867a2.057 2.057 0 011.499-.629c.671 0 1.197.189 1.578.567.369.363.553.845.553 1.446 0 .184-.022.354-.066.51zm-2.026-1.82c-.372 0-.684.12-.936.361-.24.228-.376.512-.408.852h2.606a1.19 1.19 0 00-.317-.844c-.231-.246-.546-.369-.945-.369zm5.533.189a.956.956 0 00-.549-.189c-.296 0-.555.137-.778.409-.22.272-.33.601-.33.984v2.699h-.835v-4.707h.835v.752c.305-.56.758-.84 1.358-.84.15 0 .365.027.646.079l-.347.813z" fill="#FEFEFE"/><path fill-rule="evenodd" clip-rule="evenodd" d="M76.15 120.268l.254-91.754h4.833v87.166h13.226V80.508l34.591-43.329h6.539L99.55 82.292v37.976h-23.4z" fill="#C5C6C6"/><path fill-rule="evenodd" clip-rule="evenodd" d="M90.393 79.488v32.624h-5.087V77.959l38.661-49.445 30.104.066-41.295 51.673 22.891 31.859h-5.596l-23.4-31.86 36.118-46.641h-16.787L90.393 79.488z" fill="#C5C6C6"/><path fill-rule="evenodd" clip-rule="evenodd" d="M152.962 120.268l-31.538-43.583-3.052 4.078 24.925 34.917h-15.509l-24.276-32.908.107 8.95 21.302 28.546h28.041z" fill="#C5C6C6"/><path fill-rule="evenodd" clip-rule="evenodd" d="M21 120.268l.254-91.754h4.833v87.166h13.226V80.508l34.591-43.329h6.54L44.4 82.292v37.976H21z" fill="#FEFEFE"/><path fill-rule="evenodd" clip-rule="evenodd" d="M35.243 33.61v31.096l-5.073 6.737-.014-42.93h13.735v24.978l-5.023 6.435-.064-26.315h-3.56zm0 45.878v32.624h-5.087V77.959l38.661-49.445 30.104.066-41.295 51.673 22.891 31.859h-5.596l-23.4-31.86 36.119-46.64H70.852L35.243 79.488z" fill="#FEFEFE"/><path fill-rule="evenodd" clip-rule="evenodd" d="M97.813 120.268l-31.54-43.583-3.051 4.078 24.925 34.917H72.64L48.362 82.772l.107 8.95 21.302 28.546h28.041z" fill="#FEFEFE"/><path fill-rule="evenodd" clip-rule="evenodd" d="M90.428 33.709v31.378l-5.074 6.799-.013-43.32h13.735V53.77l-5.024 6.494-.064-26.555h-3.56z" fill="#D9DADA"/></svg>