<svg id="ed1vnjewhl0w1" xmlns="http://www.w3.org/2000/svg" viewBox="0 0 138 138" shape-rendering="geometricPrecision" text-rendering="geometricPrecision"><style>@keyframes ed1vnjewhl0w2_c_o{0%{opacity:0}}@keyframes ed1vnjewhl0w3_to__to{0%{transform:translate(187.396627px,-82.121231px);animation-timing-function:cubic-bezier(0,0,.58,1)}}@keyframes ed1vnjewhl0w4_to__to{0%{transform:translate(-43.10068px,119.954929px)}}@keyframes ed1vnjewhl0w5_to__to{0%{transform:translate(-38.103676px,163.576472px);animation-timing-function:cubic-bezier(0,0,.58,1)}}@keyframes ed1vnjewhl0w6_to__to{0%{transform:translate(-43.100679px,-82.121231px)}}@keyframes ed1vnjewhl0w7_to__to{0%{transform:translate(294.566656px,14.696429px)}}@keyframes ed1vnjewhl0w8_to__to{0%{transform:translate(86.871502px,168.716962px);animation-timing-function:cubic-bezier(0,0,.58,1)}}@keyframes ed1vnjewhl0w9_to__to{0%{transform:translate(-93.000652px,56.495931px)}}</style><g transform="translate(187.397 -82.121)" style="animation:ed1vnjewhl0w3_to__to 2000ms linear 1 normal forwards"><path id="ed1vnjewhl0w3" d="M57.15 92.268L57.404.514h4.833V87.68h13.226V52.508l34.591-43.329h6.539L80.55 54.292v37.976h-23.4z" transform="translate(-86.872 -46.391)" clip-rule="evenodd" fill="#C5C6C6" fill-rule="evenodd" stroke="none" stroke-width="1"/></g><g transform="translate(-43.1 119.955)" style="animation:ed1vnjewhl0w4_to__to 2000ms linear 1 normal forwards"><path id="ed1vnjewhl0w4" d="M71.393 51.488v32.624h-5.087V49.959L104.967.514l30.104.065-41.295 51.674 22.891 31.859h-5.596l-23.4-31.86 36.119-46.64h-16.787l-35.61 45.876z" transform="translate(-100.688 -42.313)" clip-rule="evenodd" fill="#C5C6C6" fill-rule="evenodd" stroke="none" stroke-width="1"/></g><g transform="translate(-38.104 163.576)" style="animation:ed1vnjewhl0w5_to__to 2000ms linear 1 normal forwards"><path id="ed1vnjewhl0w5" d="M133.962 92.268l-31.538-43.583-3.053 4.078 24.926 34.917h-15.509L84.512 54.772l.107 8.95 21.302 28.546h28.041z" transform="translate(-109.237 -70.476)" clip-rule="evenodd" fill="#C5C6C6" fill-rule="evenodd" stroke="none" stroke-width="1"/></g><g transform="translate(-43.1 -82.121)" style="animation:ed1vnjewhl0w6_to__to 2000ms linear 1 normal forwards"><path id="ed1vnjewhl0w6" d="M2 92.268L2.254.514h4.833V87.68h13.226V52.508L54.904 9.179h6.54L25.4 54.292v37.976H2z" transform="translate(-31.722 -46.391)" clip-rule="evenodd" fill="#FEFEFE" fill-rule="evenodd" stroke="none" stroke-width="1"/></g><g transform="translate(294.567 14.696)" style="animation:ed1vnjewhl0w7_to__to 2000ms linear 1 normal forwards"><path id="ed1vnjewhl0w7" d="M16.243 5.61v31.096l-5.073 6.737-.014-42.93h13.735v24.978l-5.023 6.435-.064-26.315h-3.56zm0 45.878v32.624h-5.087V49.959L49.817.514l30.104.065-41.295 51.674 22.891 31.859h-5.596l-23.4-31.86L68.64 5.612H51.852L16.243 51.488z" transform="translate(-45.539 -42.313)" clip-rule="evenodd" fill="#FEFEFE" fill-rule="evenodd" stroke="none" stroke-width="1"/></g><g transform="translate(86.872 168.717)" style="animation:ed1vnjewhl0w8_to__to 2000ms linear 1 normal forwards"><path id="ed1vnjewhl0w8" d="M78.813 92.268l-31.54-43.583-3.051 4.078L69.147 87.68H53.64L29.362 54.772l.108 8.95 21.3 28.546h28.041z" transform="translate(-54.088 -70.476)" clip-rule="evenodd" fill="#FEFEFE" fill-rule="evenodd" stroke="none" stroke-width="1"/></g><g transform="translate(-93 56.496)" style="animation:ed1vnjewhl0w9_to__to 2000ms linear 1 normal forwards"><path id="ed1vnjewhl0w9" d="M71.428 5.709v31.378l-5.074 6.799-.013-43.32h13.735V25.77l-5.024 6.494-.064-26.555h-3.56z" transform="translate(-73.209 -22.226)" clip-rule="evenodd" fill="#D9DADA" fill-rule="evenodd" stroke="none" stroke-width="1"/></g></svg>