<svg width="350" height="350" fill="none" xmlns="http://www.w3.org/2000/svg"><path d="M63.195 289.206l-8.672-14.151-4.094 5.816v8.335H46.23v-30.759h4.2v16.734l11.421-16.734h4.682l-9.196 13.332 10.498 17.427h-4.64zm6.425-1.407l1.532-3.863c.784.574 1.757 1.057 2.919 1.449 1.176.378 2.225.567 3.15.567 1.637 0 2.953-.448 3.947-1.344.993-.896 1.49-2.037 1.49-3.422 0-1.036-.28-1.995-.84-2.877-.546-.896-1.931-1.869-4.157-2.918l-2.477-1.155c-2.1-.98-3.57-2.142-4.41-3.486-.825-1.343-1.238-2.96-1.238-4.85 0-2.295.811-4.199 2.435-5.711 1.624-1.511 3.71-2.267 6.257-2.267 3.401 0 5.767.553 7.097 1.659l-1.24 3.653c-.559-.406-1.413-.798-2.56-1.176-1.148-.378-2.212-.567-3.192-.567-1.428 0-2.555.406-3.38 1.218-.812.812-1.218 1.855-1.218 3.128 0 .784.147 1.498.44 2.142.295.644.7 1.183 1.219 1.617.531.434 1.61 1.043 3.233 1.826l2.52 1.197c2.1.994 3.569 2.184 4.409 3.569.853 1.372 1.28 3.122 1.28 5.25 0 2.309-.93 4.269-2.792 5.878-1.848 1.61-4.325 2.415-7.433 2.415-2.73 0-5.06-.644-6.991-1.932zm26.287-25.573v8.545h10.162v3.57H95.907v11.086h13.941v3.779h-18.14v-30.759h18.371v3.779H95.907zm38.738 27.4l-15.895-22.487v22.067h-3.989v-30.759h1.68l15.474 21.269v-21.269h3.989v31.179h-1.259zm8.314-.42v-30.759h4.199v30.759h-4.199zm28.702 0l-2.121-6.488h-11.443l-2.267 6.488h-4.704l12.493-31.179h1.113l11.59 31.179h-4.661zm-7.685-23.117l-4.766 13.543h9.133l-4.367-13.543zm43.126 23.117l-8.671-14.151-4.095 5.816v8.335h-4.199v-30.759h4.199v16.734l11.422-16.734h4.682l-9.196 13.332 10.498 17.427h-4.64zm6.341-15.642c0-4.451 1.113-8.175 3.338-11.17 2.24-2.995 5.256-4.493 9.05-4.493 4.269 0 7.537 1.379 9.805 4.136 2.281 2.758 3.422 6.6 3.422 11.527 0 5.053-1.141 9.014-3.422 11.884-2.282 2.855-5.55 4.283-9.805 4.283-3.878 0-6.915-1.512-9.113-4.535-2.183-3.024-3.275-6.901-3.275-11.632zm4.409 0c0 3.527.693 6.474 2.079 8.839 1.399 2.366 3.366 3.549 5.9 3.549 2.869 0 5.053-1.085 6.55-3.255 1.512-2.169 2.268-5.214 2.268-9.133 0-7.923-2.94-11.884-8.818-11.884-2.604 0-4.585 1.064-5.942 3.192-1.358 2.127-2.037 5.025-2.037 8.692zm43.105 15.642L252.748 276c-.938 0-2.422-.07-4.452-.21v13.416h-4.199v-30.759c.154 0 1.239-.049 3.255-.147 2.029-.112 3.506-.168 4.43-.168 7.39 0 11.086 2.939 11.086 8.818 0 1.932-.595 3.675-1.785 5.228-1.19 1.54-2.604 2.499-4.241 2.877l8.923 14.151h-4.808zm-12.661-26.98v9.994c1.008.14 1.988.21 2.94.21 2.519 0 4.353-.406 5.501-1.218 1.148-.811 1.721-2.26 1.721-4.346 0-1.721-.615-2.96-1.847-3.716-1.232-.756-3.178-1.134-5.837-1.134-.42 0-1.246.07-2.478.21zm19.149 11.338c0-4.451 1.113-8.175 3.338-11.17 2.24-2.995 5.256-4.493 9.05-4.493 4.269 0 7.537 1.379 9.805 4.136 2.281 2.758 3.422 6.6 3.422 11.527 0 5.053-1.141 9.014-3.422 11.884-2.282 2.855-5.55 4.283-9.805 4.283-3.878 0-6.915-1.512-9.113-4.535-2.183-3.024-3.275-6.901-3.275-11.632zm4.409 0c0 3.527.693 6.474 2.079 8.839 1.399 2.366 3.366 3.549 5.9 3.549 2.869 0 5.053-1.085 6.55-3.255 1.512-2.169 2.268-5.214 2.268-9.133 0-7.923-2.94-11.884-8.818-11.884-2.604 0-4.585 1.064-5.942 3.192-1.358 2.127-2.037 5.025-2.037 8.692zm26.035 15.642v-30.759h4.199v26.98h13.9v3.779h-18.099zm-172.168 27.898l-.848 1.209c-.174-.175-.484-.34-.929-.496a3.84 3.84 0 00-1.299-.235c-.931 0-1.671.328-2.218.983-.547.65-.821 1.542-.821 2.679 0 1.13.28 1.993.839 2.588.559.589 1.335.884 2.327.884.769 0 1.545-.298 2.327-.893l.676 1.443c-.92.595-2.059.893-3.418.893-1.317 0-2.405-.442-3.265-1.326-.86-.884-1.289-2.08-1.289-3.589 0-1.539.444-2.775 1.334-3.707.896-.932 2.12-1.398 3.671-1.398.499 0 1.04.105 1.623.316.583.21 1.013.427 1.29.649zm3.481-.784v6.159c0 1.491.646 2.237 1.939 2.237.565 0 1.082-.162 1.551-.487.469-.325.779-.701.929-1.127v-6.782h1.714v9.659h-1.714v-1.335c-.192.379-.58.727-1.163 1.046-.578.313-1.143.469-1.696.469-1.058 0-1.87-.304-2.435-.911-.559-.607-.839-1.47-.839-2.588v-6.34h1.714zm7.846 9.081l.604-1.623c.956.625 1.726.938 2.309.938 1.058 0 1.587-.445 1.587-1.335 0-.637-.511-1.184-1.533-1.641-.787-.361-1.32-.635-1.596-.821a3.806 3.806 0 01-.713-.631 2.748 2.748 0 01-.45-.758 2.543 2.543 0 01-.145-.866c0-.793.289-1.412.866-1.857.577-.445 1.332-.668 2.264-.668.703 0 1.59.223 2.66.668l-.487 1.587c-.679-.541-1.362-.812-2.047-.812-.409 0-.755.096-1.037.289-.277.192-.415.436-.415.73 0 .62.352 1.089 1.055 1.407l1.227.559c.751.343 1.298.734 1.641 1.173.343.439.514.989.514 1.65 0 .866-.304 1.545-.911 2.038-.607.487-1.449.731-2.525.731a5.75 5.75 0 01-2.868-.758zm8.73-7.729h-1.118v-1.352h1.118v-2.021l1.714-.658v2.679h2.651v1.352h-2.651v4.798c0 .812.135 1.389.405 1.732.277.343.719.514 1.326.514.439 0 .893-.111 1.362-.334l.252 1.506a9.436 9.436 0 01-2.335.271c-.764 0-1.41-.283-1.939-.848-.523-.571-.785-1.29-.785-2.155v-5.484zm6.079 3.455c0-1.492.399-2.694 1.199-3.608.806-.92 1.864-1.38 3.175-1.38 1.382 0 2.456.442 3.219 1.326.764.878 1.146 2.098 1.146 3.662 0 1.557-.391 2.786-1.173 3.688-.781.896-1.846 1.344-3.192 1.344-1.377 0-2.45-.454-3.22-1.362-.77-.908-1.154-2.131-1.154-3.67zm1.803 0c0 2.423.857 3.634 2.571 3.634.799 0 1.425-.325 1.875-.974.457-.649.686-1.536.686-2.66 0-2.393-.854-3.59-2.561-3.59-.782 0-1.407.319-1.876.956-.463.637-.695 1.515-.695 2.634zm19.931 4.852v-6.115c0-1.521-.658-2.282-1.975-2.282-.415 0-.802.13-1.163.388-.361.253-.607.541-.74.866v7.143H168v-6.864c0-.475-.181-.847-.541-1.118-.355-.276-.827-.415-1.416-.415-.343 0-.71.133-1.101.397-.384.265-.658.556-.82.875v7.125h-1.714v-9.659h1.119l.568 1.118c.661-.866 1.488-1.299 2.48-1.299 1.383 0 2.351.43 2.904 1.29.192-.367.55-.673 1.073-.92a3.754 3.754 0 011.614-.37c.998 0 1.771.298 2.318.893.547.589.821 1.419.821 2.489v6.458h-1.714zm3.518-.578l.604-1.623c.956.625 1.725.938 2.309.938 1.058 0 1.587-.445 1.587-1.335 0-.637-.511-1.184-1.533-1.641-.788-.361-1.32-.635-1.597-.821a3.8 3.8 0 01-.712-.631 2.728 2.728 0 01-.451-.758 2.567 2.567 0 01-.144-.866c0-.793.288-1.412.865-1.857.578-.445 1.332-.668 2.264-.668.704 0 1.59.223 2.661.668l-.487 1.587c-.68-.541-1.362-.812-2.048-.812-.408 0-.754.096-1.037.289-.276.192-.415.436-.415.73 0 .62.352 1.089 1.056 1.407l1.226.559c.752.343 1.299.734 1.641 1.173.343.439.514.989.514 1.65 0 .866-.303 1.545-.91 2.038-.608.487-1.449.731-2.526.731a5.744 5.744 0 01-2.867-.758zm15.151-.117l-.605.875h-.856V312.36h1.713v4.672c.163-.222.466-.427.911-.613.451-.187.893-.28 1.326-.28 1.323 0 2.393.457 3.21 1.371.824.914 1.236 2.068 1.236 3.463 0 1.612-.412 2.88-1.236 3.806-.823.92-1.939 1.38-3.345 1.38-.457 0-.908-.084-1.353-.253-.439-.174-.773-.381-1.001-.622zm.252-6.944v5.573c0 .096.214.256.641.478.426.217.751.325.974.325 1.166 0 2.002-.28 2.507-.839.505-.559.757-1.497.757-2.814 0-1.094-.294-1.948-.884-2.561-.589-.613-1.382-.92-2.38-.92-.211 0-.505.09-.884.271-.373.18-.617.343-.731.487zm13.835-.37c-.373-.258-.749-.388-1.128-.388-.607 0-1.139.28-1.596.839-.451.559-.676 1.233-.676 2.02v5.538h-1.714v-9.659h1.714v1.542c.625-1.149 1.554-1.723 2.786-1.723.307 0 .749.054 1.326.163l-.712 1.668zm1.298 3.157c0-1.492.4-2.694 1.2-3.608.805-.92 1.864-1.38 3.174-1.38 1.383 0 2.456.442 3.22 1.326.764.878 1.145 2.098 1.145 3.662 0 1.557-.39 2.786-1.172 3.688-.782.896-1.846 1.344-3.193 1.344-1.376 0-2.45-.454-3.219-1.362-.77-.908-1.155-2.131-1.155-3.67zm1.804 0c0 2.423.857 3.634 2.57 3.634.8 0 1.425-.325 1.876-.974.457-.649.686-1.536.686-2.66 0-2.393-.854-3.59-2.562-3.59-.781 0-1.407.319-1.876.956-.462.637-.694 1.515-.694 2.634zm14.989 4.852l-3.03-4.834-1.497 1.542v3.292h-1.714V312.36h1.714v8.451l3.697-4.491h2.002l-3.093 3.67 3.779 5.989h-1.858zm11.219-4.663h-6.962c0 1.13.309 1.999.929 2.606.547.529 1.25.794 2.11.794.98 0 1.798-.286 2.453-.857l.721 1.236c-.264.264-.67.493-1.217.685-.685.253-1.449.379-2.291.379-1.214 0-2.245-.412-3.093-1.236-.944-.908-1.416-2.128-1.416-3.661 0-1.593.484-2.871 1.452-3.833.866-.86 1.891-1.29 3.075-1.29 1.377 0 2.456.388 3.238 1.164.757.745 1.136 1.734 1.136 2.967 0 .379-.045.727-.135 1.046zm-4.158-3.734c-.763 0-1.403.247-1.921.74a2.683 2.683 0 00-.838 1.749h5.348c0-.691-.217-1.268-.65-1.731-.475-.505-1.121-.758-1.939-.758zm11.355.388c-.373-.258-.749-.388-1.128-.388-.607 0-1.139.28-1.596.839-.451.559-.676 1.233-.676 2.02v5.538h-1.714v-9.659h1.714v1.542c.625-1.149 1.554-1.723 2.787-1.723.306 0 .748.054 1.325.163l-.712 1.668z" fill="#2B2A29"/><path fill-rule="evenodd" clip-rule="evenodd" d="M164.826 240.083l.508-183.508H175v174.333h26.452v-70.345l69.182-86.657h13.078l-72.087 90.225v75.952h-46.799z" fill="#C5C6C6"/><path fill-rule="evenodd" clip-rule="evenodd" d="M193.313 158.524v65.247h-10.174v-68.306l77.321-98.89 60.208.131-82.59 103.347 45.782 63.718h-11.191l-46.8-63.718 72.234-93.284H264.53l-71.217 91.755z" fill="#C5C6C6"/><path fill-rule="evenodd" clip-rule="evenodd" d="M318.451 240.083l-63.078-87.167-6.104 8.156 49.852 69.835h-31.018l-48.554-65.816.216 17.9 42.603 57.092h56.083z" fill="#C5C6C6"/><path fill-rule="evenodd" clip-rule="evenodd" d="M54.526 240.083l.509-183.508H64.7v174.333h26.453v-70.345l69.181-86.657h13.079l-72.087 90.225v75.952h-46.8z" fill="#2B2A29"/><path fill-rule="evenodd" clip-rule="evenodd" d="M83.013 66.77v62.189l-10.148 13.475-.026-85.859h27.469v49.955L90.261 119.4l-.127-52.63h-7.121zm0 91.754v65.247H72.839v-68.306l77.321-98.89 60.208.131-82.59 103.347 45.782 63.718h-11.191l-46.8-63.718 72.235-93.284H154.23l-71.217 91.755z" fill="#2B2A29"/><path fill-rule="evenodd" clip-rule="evenodd" d="M208.151 240.083l-63.078-87.167-6.104 8.156 49.852 69.835h-31.018l-48.553-65.816.215 17.9 42.604 57.092h56.082z" fill="#2B2A29"/><path fill-rule="evenodd" clip-rule="evenodd" d="M193.382 66.965v62.756l-10.148 13.598-.026-86.641h27.469v50.41l-10.047 12.987-.127-53.11h-7.121z" fill="#C5C6C6"/></svg>